<mxfile host="app.diagrams.net" modified="2024-05-23T19:08:59.149Z" agent="Mozilla/5.0 (Windows NT 10.0; Win64; x64) AppleWebKit/537.36 (KHTML, like Gecko) Chrome/125.0.0.0 Safari/537.36" version="24.4.5" etag="raE_nFj1u34cHb_0NA-J" type="github">
  <diagram name="Page-1" id="kWWLmzjx_btTEChK5JZp">
    <mxGraphModel>
      <root>
        <mxCell id="0" />
        <mxCell id="1" parent="0" />
      </root>
    </mxGraphModel>
  </diagram>
</mxfile>
